<?xml version="1.0" encoding="UTF-8" standalone="no"?>
<!-- Generator: Adobe Illustrator 23.0.1, SVG Export Plug-In . SVG Version: 6.00 Build 0)  -->

<svg
   version="1.1"
   id="Livello_1"
   x="0px"
   y="0px"
   viewBox="0 0 1480 1480"
   enable-background="new 0 0 1831.085 1703.335"
   xml:space="preserve"
   sodipodi:docname="Logo_v2_Inkscape.svg"
   inkscape:version="1.3 (0e150ed6c4, 2023-07-21)"
   width="1480"
   height="1480"
   inkscape:export-filename="Logo_v2.png"
   inkscape:export-xdpi="90"
   inkscape:export-ydpi="90"
   xmlns:inkscape="http://www.inkscape.org/namespaces/inkscape"
   xmlns:sodipodi="http://sodipodi.sourceforge.net/DTD/sodipodi-0.dtd"
   xmlns="http://www.w3.org/2000/svg"
   xmlns:svg="http://www.w3.org/2000/svg"><defs
   id="defs22"><linearGradient
     id="swatch22"
     inkscape:swatch="solid"><stop
       style="stop-color:#000000;stop-opacity:1;"
       offset="0"
       id="stop22" /></linearGradient></defs><sodipodi:namedview
   id="namedview22"
   pagecolor="#ffffff"
   bordercolor="#000000"
   borderopacity="0.25"
   inkscape:showpageshadow="2"
   inkscape:pageopacity="0.0"
   inkscape:pagecheckerboard="0"
   inkscape:deskcolor="#d1d1d1"
   showgrid="false"
   inkscape:zoom="0.26094122"
   inkscape:cx="383.22807"
   inkscape:cy="950.40561"
   inkscape:window-width="1440"
   inkscape:window-height="830"
   inkscape:window-x="-6"
   inkscape:window-y="-6"
   inkscape:window-maximized="1"
   inkscape:current-layer="Livello_1" />&#10;<path
   fill="#0a2767"
   d="m 1445.083,666.25 c 0.1,-14.318 -7.298,-27.644 -19.503,-35.131 h -0.213 L 1424.6,630.693 790.108,255.108 c -2.74,-1.851 -5.583,-3.543 -8.517,-5.067 -24.498,-12.639 -53.599,-12.639 -78.098,0 -2.934,1.525 -5.777,3.216 -8.517,5.067 l -634.49,375.585 -0.766,0.426 c -19.392,12.059 -25.337,37.556 -13.278,56.948 3.553,5.714 8.447,10.474 14.257,13.868 l 634.492,375.585 c 2.749,1.835 5.592,3.527 8.517,5.068 24.498,12.639 53.599,12.639 78.098,0 2.925,-1.541 5.767,-3.232 8.517,-5.068 l 634.492,-375.585 c 12.675,-7.39 20.413,-21.012 20.268,-35.685 z"
   id="path1"
   style="display:inline" />&#10;<path
   fill="#0364b8"
   d="M 1252.2065,930.98665 1253.6791,301.13651 997.97301,30.191579 228.83562,31.630481 229.30552,925.008 862.0589,1269.1459 Z"
   id="path2"
   style="display:inline;fill:#fff1dd;fill-opacity:1;stroke:#fae1bc;stroke-width:40;stroke-dasharray:none;stroke-opacity:1"
   sodipodi:nodetypes="ccccccc"
   inkscape:label="paper" />&#10;&#10;&#10;&#10;&#10;&#10;&#10;<linearGradient
   id="SVGID_1_"
   gradientUnits="userSpaceOnUse"
   x1="1128.4584"
   y1="811.08331"
   x2="1128.4584"
   y2="1.9982001"
   gradientTransform="matrix(1,0,0,-1,-386,1477.3334)">&#10;	<stop
   offset="0"
   style="stop-color:#35B8F1"
   id="stop8" />&#10;	<stop
   offset="1"
   style="stop-color:#28A8EA"
   id="stop9" />&#10;</linearGradient>&#10;<path
   fill="url(#SVGID_1_)"
   d="m 1425.58,699.593 -0.809,0.426 -634.492,356.848 c -2.768,1.703 -5.578,3.321 -8.517,4.769 -10.777,5.132 -22.481,8.029 -34.407,8.517 l -34.663,-20.27 c -2.929,-1.47 -5.773,-3.105 -8.517,-4.897 L 61.167,678.003 H 60.869 L 39.833,666.25 v 722.384 c 0.328,48.196 39.653,87.006 87.849,86.7 h 1230.914 c 0.724,0 1.363,-0.341 2.129,-0.341 10.18,-0.651 20.216,-2.745 29.808,-6.217 4.145,-1.756 8.146,-3.835 11.966,-6.217 2.853,-1.618 7.75,-5.152 7.75,-5.152 21.814,-16.142 34.726,-41.635 34.833,-68.772 V 666.25 c -0.014,13.817 -7.466,26.557 -19.502,33.343 z"
   id="path9"
   style="display:inline;fill:url(#SVGID_1_)" />&#10;<path
   opacity="0.5"
   fill="#0a2767"
   enable-background="new    "
   d="m 1411.017,663.397 v 44.287 L 747.569,1164.475 60.699,678.301 70.34105,634.22661 C 290.3498,760.61939 510.87273,886.1924 731.386,1011.728 l 24.698,14.478 c 2.129,-0.852 4.258,-1.703 6.813,-2.555 1.278,-0.852 640.879,-360.681 640.879,-360.681 z"
   id="path10"
   style="display:inline"
   sodipodi:nodetypes="cccccccccc" />&#10;<path
   fill="#1490df"
   d="m 1425.58,699.593 -0.809,0.468 -634.492,356.848 c -2.768,1.703 -5.578,3.321 -8.517,4.769 -24.641,12.038 -53.457,12.038 -78.098,0 -2.918,-1.445 -5.76,-3.037 -8.517,-4.769 L 60.657,700.061 59.891,699.593 C 47.641,692.951 39.961,680.184 39.834,666.25 v 722.384 c 0.305,48.188 39.616,87.004 87.803,86.7 0.001,0 0.002,0 0.004,0 h 1229.636 c 48.188,0.307 87.5,-38.509 87.807,-86.696 0,-10e-4 0,0 0,0 V 666.25 c -0.016,13.817 -7.468,26.557 -19.504,33.343 z"
   id="path11"
   style="display:inline" />&#10;<path
   opacity="0.1"
   enable-background="new    "
   d="m 799.52,1051.629 -9.496,5.323 c -2.752,1.752 -5.595,3.359 -8.517,4.812 -10.462,5.135 -21.838,8.146 -33.47,8.857 l 241.405,285.479 421.107,101.476 c 11.539,-8.716 20.717,-20.178 26.7,-33.343 z"
   id="path12"
   style="display:inline" />&#10;<path
   opacity="0.05"
   enable-background="new    "
   d="m 842.529,1027.442 -52.505,29.51 c -2.752,1.752 -5.595,3.359 -8.517,4.812 -10.462,5.135 -21.838,8.146 -33.47,8.857 l 113.101,311.838 549.538,74.989 c 21.649,-16.254 34.394,-41.743 34.407,-68.815 v -9.326 z"
   id="path13"
   style="display:inline" />&#10;<path
   fill="#28a8ea"
   d="m 128.833,1475.333 h 1228.316 c 18.901,0.096 37.335,-5.874 52.59,-17.033 L 712.65,1049.969 c -2.929,-1.47 -5.773,-3.105 -8.517,-4.897 L 61.125,678.088 H 60.827 L 39.834,666.25 v 719.914 c -0.048,49.2 39.798,89.122 88.999,89.169 -0.001,0 -0.001,0 0,0 z"
   id="path14"
   style="display:inline" />&#10;&#10;&#10;&#10;&#10;<linearGradient
   id="SVGID_2_"
   gradientUnits="userSpaceOnUse"
   x1="162.7469"
   y1="1383.0741"
   x2="774.08643"
   y2="324.25919"
   gradientTransform="matrix(1,0,0,-1,0,1705.3334)">&#10;	<stop
   offset="0"
   style="stop-color:#1784D9"
   id="stop18" />&#10;	<stop
   offset="0.5"
   style="stop-color:#107AD5"
   id="stop19" />&#10;	<stop
   offset="1"
   style="stop-color:#0A63C9"
   id="stop20" />&#10;</linearGradient>&#10;&#10;&#10;&#10;<text
   xml:space="preserve"
   style="font-style:normal;font-variant:normal;font-weight:bold;font-stretch:normal;font-size:298.667px;font-family:Consolas;-inkscape-font-specification:'Consolas, Bold';font-variant-ligatures:normal;font-variant-caps:normal;font-variant-numeric:normal;font-variant-east-asian:normal;opacity:1;fill:#071a43;fill-opacity:1;stroke:none;stroke-width:40;stroke-dasharray:none;stroke-opacity:1"
   x="347.26685"
   y="396.18561"
   id="text22"><tspan
     sodipodi:role="line"
     id="tspan22"
     x="347.26685"
     y="396.18561">HTML</tspan><tspan
     sodipodi:role="line"
     id="tspan23"
     x="347.26685"
     y="769.51935">&lt;/&gt;</tspan></text></svg>
